<svg xmlns="http://www.w3.org/2000/svg" xmlns:xlink="http://www.w3.org/1999/xlink" viewBox="0 0 318 457.15"><defs><style>.cls-1{fill:#fff;}.cls-2{fill:#242528;stroke-miterlimit:10;stroke:url(#linear-gradient);}</style><linearGradient id="linear-gradient" x1="22.46" y1="228.54" x2="295.52" y2="228.54" gradientUnits="userSpaceOnUse"><stop offset="0" stop-color="#e24b44"/><stop offset="1" stop-color="#fff"/></linearGradient></defs><title>logo-new</title><g id="Layer_2" data-name="Layer 2"><g id="Layer_1-2" data-name="Layer 1"><path class="cls-1" d="M316.8,397.28l-1-3.3a42.45,42.45,0,0,0-22.33-23.84c-1.11-5.77-2.29-15.68-2.29-31.71,0-43.73-20.16-73.54-38.68-91.7a143.07,143.07,0,0,0,3.39-205A141,141,0,0,0,155.33,0h-115L38.54.1A42.31,42.31,0,0,0,0,42V415.11c0,22.79,19.25,42,42,42,23.5,0,42.61-18.86,42.61-42V284.92h63.79l1.35.45,2.39.37c4.2.64,20.69,5.57,34,15,14.87,11.09,20.93,22,20.93,37.73,0,35.84,4.33,60.14,13.93,78.59,11.74,23.37,34.08,33.83,51,33.83h1.14a66.68,66.68,0,0,0,8.55-.57h3.6l4.88-1.87C310.65,440.54,321.83,419.05,316.8,397.28ZM213.43,142.75c0,31.14-25.19,57.15-56.19,58.09H84.65V84.65h70.68A58.16,58.16,0,0,1,213.43,142.75Z"/><path class="cls-2" d="M294.43,402.46l-.18-.62c-2.67-7.33-10.05-12.37-18.17-12.72a21.3,21.3,0,0,1-3-6c-2.22-6.67-4.87-19.83-4.87-44.66,0-52.76-35.16-81-53.4-92.09a119.37,119.37,0,0,0,58.37-85.88,19.29,19.29,0,0,0-19-22.16h-.44a18.35,18.35,0,0,0-18.18,16C230,193,196.43,222.84,157.62,223.8H61.69V42.09a19.25,19.25,0,0,0-19.16-19.2h-.32A19.26,19.26,0,0,0,23,42.14V422.19a6.22,6.22,0,0,0,1.94,4.49c5.2,4.93,11.25,7.51,17.17,7.51A20,20,0,0,0,50,432.56a19.1,19.1,0,0,0,11.71-17.45V262h90.95a17.71,17.71,0,0,0,2.14.87l.89.22c7.14,1.1,27.31,7.21,44,19,20.78,15.41,30.46,33.32,30.46,56.35,0,32,3.54,53.07,11.43,68.2,7,14,20.64,21.26,30.53,21.26h1.14a49.43,49.43,0,0,0,6.54-.5l1.32-.07L282,427C291.62,423.26,296.85,413,294.43,402.46Z"/></g></g></svg>