<?xml version="1.0" encoding="UTF-8"?>
<svg width="131px" height="23px" viewBox="0 0 131 23" version="1.1" xmlns="http://www.w3.org/2000/svg" xmlns:xlink="http://www.w3.org/1999/xlink">
    <!-- Generator: Sketch 61.2 (89653) - https://sketch.com -->
    <title>AYMERICSANS-LOGO</title>
    <desc>Created with Sketch.</desc>
    <g id="Page-1" stroke="none" stroke-width="1" fill="none" fill-rule="evenodd">
        <g id="Artboard" transform="translate(-61.000000, -115.000000)">
            <g id="AYMERICSANS-LOGO" transform="translate(61.000000, 104.000000)">
                <rect id="BG" x="0.10546875" y="0" width="140" height="40"></rect>
                <path d="M3.76171875,29 L4.9453125,25.1445312 L9.80859375,25.1445312 L10.9921875,29 L14.7421875,29 L9.046875,12.1953125 L5.6953125,12.1953125 L0,29 L3.76171875,29 Z M8.7890625,21.8867188 L5.953125,21.8867188 C6.45703125,20.2460938 6.90234375,18.828125 7.37109375,17.2460938 C7.91015625,19.0273438 8.26171875,20.1757812 8.7890625,21.8867188 Z M19.3999687,33.7109375 L25.57575,16.90625 L22.2241875,16.90625 C21.4273125,19.1679688 20.6304375,21.5 19.8335625,23.7617188 L17.2905937,16.90625 L13.9155937,16.90625 C15.310125,20.5039062 16.8218437,24.4414062 18.2280937,28.0390625 L16.1421562,33.7109375 L19.3999687,33.7109375 Z M29.8350937,29 L29.8350937,24.5 C29.8350937,22.8828125 30.0694687,21.6523438 30.5147812,20.8085938 L30.5147812,20.8203125 C30.9600937,20.0351562 31.4991562,19.625 32.1319687,19.625 C32.9405625,19.625 33.339,20.0820312 33.339,21.0078125 L33.339,29 L36.6554062,29 L36.6554062,24.2539062 C36.6554062,22.71875 36.8780625,21.5585938 37.323375,20.7617188 C37.74525,20.0117188 38.2843125,19.625 38.9405625,19.625 C39.760875,19.625 40.1475937,20.0820312 40.1475937,21.0078125 L40.1475937,29 L43.464,29 L43.464,20.5273438 C43.464,19.34375 43.1475937,18.4179688 42.479625,17.7265625 C41.823375,17.0585938 40.9210312,16.71875 39.7725937,16.71875 C38.3429062,16.71875 37.1710312,17.3984375 36.2686875,18.828125 C35.6593125,17.421875 34.4054062,16.7070312 32.964,16.71875 C31.7686875,16.71875 30.714,17.2695312 29.8350937,18.3125 L29.8350937,16.90625 L26.5186875,16.90625 L26.5186875,29 L29.8350937,29 Z M51.086625,29.1757812 C53.7233437,29.1757812 55.5983437,27.9335938 56.6764687,25.4257812 L53.9577187,24.4296875 C53.2545937,25.6601562 52.3405312,26.28125 51.2389687,26.28125 C50.4889687,26.28125 49.867875,26.046875 49.4225625,25.5664062 C49.0358437,25.1445312 48.8014687,24.6523438 48.742875,24.1015625 L56.7350625,24.1015625 L56.7350625,22.6953125 C56.7350625,21.3242188 56.3131875,19.9414062 55.446,18.7460938 C54.555375,17.5390625 53.0202187,16.71875 51.086625,16.71875 C49.1061562,16.71875 47.47725,17.5507812 46.586625,18.7929688 C45.7077187,20 45.2624062,21.4648438 45.2624062,22.953125 C45.2624062,24.4414062 45.7077187,25.8828125 46.586625,27.1132812 C47.47725,28.3554688 49.1061562,29.1757812 51.086625,29.1757812 Z M53.28975,21.3828125 L48.836625,21.3828125 C48.9655312,20.9257812 49.1881875,20.5390625 49.5514687,20.1992188 C49.961625,19.8125 50.4655312,19.625 51.086625,19.625 C52.2233437,19.6132812 52.9499062,20.1992188 53.28975,21.3828125 Z M61.9905,29 L61.9905,24.6289062 C61.9905,22.8945312 62.27175,21.6523438 62.8108125,20.8789062 L62.8108125,20.890625 C63.3733125,20.1171875 64.0412812,19.7539062 64.8850312,19.7421875 C65.2951875,19.7421875 65.7756562,19.8828125 66.256125,20.1875 L66.8772187,17.0234375 C66.2209687,16.8125 65.6584687,16.71875 65.2014375,16.71875 C64.006125,16.71875 62.83425,17.328125 61.9905,18.3125 L61.9905,16.90625 L58.6740937,16.90625 L58.6740937,29 L61.9905,29 Z M69.285,15.8515625 C69.8709375,15.8515625 70.363125,15.6523438 70.7615625,15.2539062 C71.16,14.8554688 71.3592187,14.3515625 71.3592187,13.7773438 C71.3592187,13.1914062 71.16,12.6992188 70.7615625,12.3007812 C70.363125,11.9140625 69.8709375,11.703125 69.285,11.703125 C68.7107812,11.703125 68.2185937,11.9023438 67.8084375,12.3007812 C67.41,12.6875 67.2107812,13.1914062 67.2107812,13.7773438 C67.2107812,14.3515625 67.41,14.8554688 67.8084375,15.2539062 C68.2185937,15.6523438 68.7107812,15.8515625 69.285,15.8515625 Z M70.9490625,29 L70.9490625,16.90625 L67.6326562,16.90625 L67.6326562,29 L70.9490625,29 Z M78.501375,29.1757812 C81.2318437,29.1757812 83.0834062,27.9570312 84.0795,25.5078125 L81.1146562,24.3007812 C80.4584062,25.6132812 79.5795,26.28125 78.501375,26.28125 C77.6927812,26.28125 77.0834062,25.9882812 76.67325,25.390625 L76.67325,25.4023438 C76.251375,24.7929688 76.0404375,23.984375 76.0404375,22.953125 C76.0404375,21.921875 76.251375,21.1132812 76.67325,20.5039062 L76.67325,20.515625 C77.0834062,19.9179688 77.6927812,19.625 78.501375,19.625 C79.5795,19.6132812 80.4584062,20.28125 81.1146562,21.59375 L84.0795,20.3867188 C83.0834062,17.9375 81.2318437,16.71875 78.501375,16.71875 C76.6146562,16.71875 75.1498125,17.3164062 74.1185625,18.5117188 C73.11075,19.6953125 72.5834062,21.171875 72.5834062,22.953125 C72.5834062,24.734375 73.11075,26.2109375 74.1185625,27.3945312 C75.1498125,28.5898438 76.6146562,29.1757812 78.501375,29.1757812 Z M90.670875,29.1875 C92.3115,29.1875 93.6474375,28.71875 94.6435312,27.7695312 C95.6279062,26.8203125 96.1318125,25.5078125 96.1318125,23.8671875 C96.1318125,22.9296875 95.8622812,22.0625 95.358375,21.3945312 C94.8544687,20.7265625 94.2450937,20.1757812 93.5419687,19.7890625 C92.8622812,19.4140625 92.1591562,19.0742188 91.4794687,18.7578125 C90.8466562,18.4648438 90.2841562,18.125 89.7919687,17.7265625 L89.7919687,17.7382812 C89.3700937,17.3867188 89.1591562,16.9765625 89.1591562,16.5429688 C89.1591562,15.8046875 89.7216562,15.2773438 90.4950937,15.2773438 C91.327125,15.265625 92.0419687,15.875 92.6630625,17.09375 L95.5107187,15.3007812 C94.46775,13.109375 92.7919687,12.0078125 90.4950937,12.0078125 C89.1591562,12.0078125 88.0224375,12.453125 87.1318125,13.3671875 C86.2411875,14.2695312 85.8075937,15.3710938 85.8075937,16.671875 C85.8075937,17.6914062 86.0419687,18.5585938 86.5341562,19.2734375 C87.0263437,19.9765625 87.624,20.5390625 88.3388437,20.9375 C89.0185312,21.3242188 89.6865,21.6640625 90.3779062,21.9570312 C90.999,22.2265625 91.5497812,22.5546875 92.0185312,22.9296875 C92.4286875,23.2695312 92.639625,23.6328125 92.639625,24.03125 C92.6279062,25.3085938 92.0068125,25.9296875 90.7411875,25.9296875 C89.3115,25.9296875 88.2919687,24.78125 87.6357187,22.484375 L84.7880625,24.265625 C85.0810312,25.7070312 85.7724375,26.9023438 86.8388437,27.8164062 C87.9169687,28.7421875 89.1943125,29.1875 90.670875,29.1875 Z M100.777875,29.1757812 C102.172406,29.1757812 103.309125,28.71875 104.223187,27.7929688 L104.469281,29 L107.246625,29 L107.246625,21.828125 C107.246625,18.4179688 105.523969,16.71875 102.125531,16.71875 C100.895062,16.71875 99.8638125,17.0234375 99.0317812,17.65625 C98.1763125,18.2890625 97.6489687,19.1796875 97.4145937,20.3632812 L100.26225,20.9960938 C100.578656,20.0820312 101.211469,19.625 102.125531,19.625 C103.332562,19.6132812 103.930219,20.1054688 103.930219,21.1015625 L103.930219,21.3828125 L102.207562,21.3828125 C100.672406,21.3828125 99.4419375,21.7578125 98.4927187,22.4726562 C97.5317812,23.2109375 97.0161562,24.1835938 97.0161562,25.4257812 C97.0161562,26.6210938 97.356,27.5585938 98.0825625,28.2148438 C98.7739687,28.859375 99.6880312,29.1757812 100.777875,29.1757812 Z M101.457562,26.28125 C100.82475,26.28125 100.473187,25.8710938 100.473187,25.3789062 C100.473187,24.5234375 101.059125,24.1015625 102.231,24.1015625 L103.930219,24.1015625 C103.930219,24.734375 103.672406,25.25 103.180219,25.6601562 C102.676312,26.0703125 102.113812,26.28125 101.457562,26.28125 Z M112.888781,29 L112.888781,24.125 C112.888781,22.7070312 113.134875,21.59375 113.627062,20.7851562 C114.095812,20.0234375 114.658312,19.625 115.314562,19.625 C116.287219,19.6132812 116.755969,20.1757812 116.755969,21.3007812 L116.755969,29 L120.072375,29 L120.072375,20.4570312 C120.072375,19.2617188 119.709094,18.3007812 119.005969,17.6679688 C118.338,17.0585938 117.353625,16.71875 116.263781,16.71875 C114.927844,16.7304688 113.826281,17.28125 112.888781,18.359375 L112.888781,16.90625 L109.572375,16.90625 L109.572375,29 L112.888781,29 Z M126.593437,29.1757812 C127.870781,29.1757812 128.925469,28.7773438 129.734062,27.9804688 C130.530937,27.1835938 130.952812,26.2109375 130.952812,25.0742188 C130.952812,24.640625 130.859062,24.2421875 130.695,23.8789062 L130.695,23.890625 C130.542656,23.5507812 130.343437,23.2460938 130.179375,23.046875 C129.991875,22.8242188 129.687187,22.6015625 129.312187,22.3789062 C128.948906,22.1679688 128.644219,22.015625 128.433281,21.9335938 C128.245781,21.8632812 127.894219,21.734375 127.425469,21.5820312 L127.437187,21.5820312 C127.1325,21.4648438 126.886406,21.3828125 126.734062,21.3359375 L126.581719,21.2890625 L126.605156,21.2890625 C125.972344,21.03125 125.644219,20.7382812 125.644219,20.375 C125.644219,19.8945312 126.0075,19.625 126.47625,19.625 C127.179375,19.625 127.812187,20.0117188 128.398125,20.75 L130.437187,18.875 C129.968437,18.171875 129.394219,17.6445312 128.702812,17.2695312 L128.714531,17.2695312 C128.034844,16.90625 127.284844,16.71875 126.47625,16.71875 C125.327812,16.71875 124.378594,17.046875 123.628594,17.7734375 C122.890312,18.4765625 122.527031,19.34375 122.527031,20.3398438 C122.527031,21.2304688 122.749687,21.921875 123.206719,22.4609375 C123.652031,22.9648438 124.249687,23.4101562 125.023125,23.703125 L125.737969,23.9726562 L125.878594,24.0078125 C126.171562,24.078125 126.417656,24.2070312 126.66375,24.3125 C127.261406,24.546875 127.812187,24.828125 127.800469,25.2382812 C127.777031,25.9296875 127.402031,26.28125 126.593437,26.28125 C125.597344,26.28125 124.859062,25.6015625 124.378594,24.265625 L121.683281,25.71875 C122.07,26.7148438 122.702812,27.5351562 123.57,28.203125 C124.425469,28.8476562 125.421562,29.1757812 126.593437,29.1757812 Z" id="AymericSans" fill="#7C8B69" fill-rule="nonzero"></path>
            </g>
        </g>
    </g>
</svg>