<svg width="88" height="88" viewBox="0 0 88 88" fill="none" xmlns="http://www.w3.org/2000/svg">
<circle cx="44" cy="44" r="44" fill="#EDB96F"/>
<path d="M10.0985 42.5862V37.5346H13.3625V38.0841H10.7076V39.779H13.0513V40.3219H10.7076V42.5862H10.0985ZM15.476 42.6524C15.1317 42.6524 14.8227 42.5708 14.5491 42.4074C14.2798 42.2441 14.0702 42.019 13.9201 41.7321C13.77 41.4452 13.695 41.123 13.695 40.7655C13.695 40.4257 13.7656 40.1123 13.9068 39.8254C14.0481 39.5341 14.2511 39.3001 14.516 39.1236C14.7852 38.947 15.1008 38.8588 15.4627 38.8588C15.7761 38.8588 16.0674 38.9294 16.3366 39.0706C16.6059 39.2119 16.8222 39.4193 16.9855 39.693C17.1488 39.9622 17.2304 40.2866 17.2304 40.6662V40.8648H14.6153C14.5844 40.8648 14.5226 40.8648 14.4299 40.8648C14.3416 40.8648 14.26 40.8604 14.1849 40.8516L14.1651 40.9575C14.2048 40.9663 14.2313 40.9818 14.2445 41.0039C14.2622 41.0215 14.2754 41.0546 14.2842 41.1032C14.2975 41.1473 14.3107 41.1892 14.324 41.229C14.4166 41.5114 14.5645 41.7366 14.7675 41.9043C14.975 42.072 15.2089 42.1559 15.4693 42.1559C15.7342 42.1559 15.9615 42.0852 16.1513 41.944C16.3411 41.8028 16.4779 41.624 16.5617 41.4077H17.1642C17.0451 41.7785 16.842 42.0786 16.5551 42.3081C16.2682 42.5377 15.9085 42.6524 15.476 42.6524ZM14.2975 40.4941C14.346 40.4499 14.3946 40.419 14.4431 40.4014C14.4961 40.3793 14.5601 40.3683 14.6351 40.3683H16.2771C16.3609 40.3683 16.4315 40.3793 16.4889 40.4014C16.5463 40.419 16.6015 40.4499 16.6544 40.4941L16.7273 40.4146C16.6831 40.3837 16.6544 40.3572 16.6412 40.3352C16.6324 40.3087 16.6235 40.2756 16.6147 40.2359C16.6015 40.1564 16.5794 40.0814 16.5485 40.0108C16.4558 39.8033 16.3124 39.6422 16.1182 39.5274C15.9284 39.4127 15.7143 39.3553 15.476 39.3553C15.2332 39.3553 15.0191 39.4127 14.8337 39.5274C14.6528 39.6422 14.5115 39.8033 14.41 40.0108C14.3703 40.0946 14.346 40.1697 14.3372 40.2359C14.3328 40.2756 14.324 40.3065 14.3107 40.3286C14.2975 40.3506 14.2688 40.3793 14.2246 40.4146L14.2975 40.4941ZM19.0505 42.6524C18.6842 42.6524 18.3928 42.5597 18.1766 42.3743C17.9647 42.189 17.8588 41.9352 17.8588 41.613C17.8588 41.2952 17.978 41.0436 18.2163 40.8582C18.4105 40.7037 18.6908 40.589 19.0571 40.5139L20.3614 40.2623C20.3658 39.9799 20.2908 39.7614 20.1363 39.6069C19.9686 39.4392 19.7435 39.3553 19.461 39.3553C19.2359 39.3553 19.0395 39.4171 18.8717 39.5407C18.7084 39.6599 18.6047 39.821 18.5606 40.024H17.9978C18.0596 39.6577 18.2273 39.373 18.501 39.1699C18.7791 38.9625 19.1013 38.8588 19.4676 38.8588C19.6839 38.8588 19.8847 38.8919 20.0701 38.9581C20.2555 39.0199 20.4122 39.1126 20.5402 39.2361C20.7079 39.395 20.8138 39.5782 20.858 39.7857C20.9021 39.9931 20.9242 40.2072 20.9242 40.4279V42.5862H20.3614V42.4141C20.3614 42.3037 20.3835 42.1779 20.4276 42.0367L20.3349 41.997C20.2157 42.1868 20.0767 42.3346 19.9178 42.4406C19.8075 42.5156 19.6817 42.5686 19.5404 42.5994C19.4036 42.6348 19.2403 42.6524 19.0505 42.6524ZM19.1167 42.1559C19.3286 42.1559 19.5228 42.1139 19.6993 42.0301C19.9156 41.9197 20.0745 41.7719 20.176 41.5865C20.2511 41.4541 20.2996 41.3283 20.3217 41.2091C20.3482 41.0899 20.3636 41.0171 20.368 40.9906C20.3813 40.9244 20.3989 40.8759 20.421 40.845C20.4431 40.8141 20.4762 40.7964 20.5203 40.792L20.5004 40.6861L19.6464 40.8648L19.1763 40.9575C18.9026 41.0105 18.7018 41.0966 18.5738 41.2157C18.4723 41.3172 18.4215 41.4452 18.4215 41.5997C18.4215 41.7674 18.4833 41.9021 18.6069 42.0036C18.7349 42.1051 18.9048 42.1559 19.1167 42.1559ZM22.991 42.5862C22.6952 42.5862 22.4767 42.52 22.3355 42.3876C22.1943 42.2552 22.1236 42.0146 22.1236 41.6659V39.4215H21.5344V38.925H22.1236V37.5346H22.6864V38.925H23.5074V39.4215H22.6864V41.5534C22.6864 41.6814 22.6952 41.7829 22.7129 41.8579C22.7305 41.9286 22.7703 41.9859 22.8321 42.0301C22.8938 42.0698 22.991 42.0897 23.1234 42.0897H23.5007V42.5862H22.991ZM25.456 42.6524C24.9396 42.6524 24.5799 42.4604 24.3768 42.0764C24.3018 41.9308 24.2533 41.7829 24.2312 41.6328C24.2135 41.4783 24.2047 41.3106 24.2047 41.1297V38.925H24.7675V41.1297C24.7675 41.5181 24.8381 41.7917 24.9793 41.9506C25.1029 42.0874 25.2905 42.1559 25.5421 42.1559C25.8202 42.1559 26.0431 42.0654 26.2108 41.8844C26.33 41.7608 26.4138 41.5909 26.4624 41.3746C26.5153 41.1583 26.5418 40.8626 26.5418 40.4874V38.925H27.1046V42.5862H26.5418V42.3479C26.5418 42.2861 26.5462 42.2353 26.5551 42.1956C26.5683 42.1514 26.5904 42.1095 26.6213 42.0698L26.5286 42.0102C26.3608 42.2397 26.1953 42.4052 26.032 42.5068C25.8687 42.6039 25.6767 42.6524 25.456 42.6524ZM28.0455 38.925H28.6083V39.1633C28.6083 39.2251 28.6017 39.2781 28.5884 39.3222C28.5796 39.3619 28.5597 39.4017 28.5288 39.4414L28.6215 39.501C28.7716 39.2759 28.9371 39.1126 29.1181 39.011C29.3035 38.9095 29.533 38.8588 29.8066 38.8588H29.8331V39.4215H29.6411C29.3454 39.4215 29.1093 39.5098 28.9327 39.6863C28.7164 39.8938 28.6083 40.2182 28.6083 40.6596V42.5862H28.0455V38.925ZM31.9372 42.6524C31.5929 42.6524 31.2839 42.5708 31.0103 42.4074C30.741 42.2441 30.5314 42.019 30.3813 41.7321C30.2312 41.4452 30.1562 41.123 30.1562 40.7655C30.1562 40.4257 30.2268 40.1123 30.3681 39.8254C30.5093 39.5341 30.7123 39.3001 30.9772 39.1236C31.2464 38.947 31.562 38.8588 31.9239 38.8588C32.2373 38.8588 32.5286 38.9294 32.7978 39.0706C33.0671 39.2119 33.2834 39.4193 33.4467 39.693C33.61 39.9622 33.6916 40.2866 33.6916 40.6662V40.8648H31.0765C31.0456 40.8648 30.9838 40.8648 30.8911 40.8648C30.8028 40.8648 30.7212 40.8604 30.6461 40.8516L30.6263 40.9575C30.666 40.9663 30.6925 40.9818 30.7057 41.0039C30.7234 41.0215 30.7366 41.0546 30.7454 41.1032C30.7587 41.1473 30.7719 41.1892 30.7852 41.229C30.8778 41.5114 31.0257 41.7366 31.2287 41.9043C31.4362 42.072 31.6701 42.1559 31.9305 42.1559C32.1954 42.1559 32.4227 42.0852 32.6125 41.944C32.8023 41.8028 32.9391 41.624 33.023 41.4077H33.6254C33.5063 41.7785 33.3032 42.0786 33.0163 42.3081C32.7294 42.5377 32.3697 42.6524 31.9372 42.6524ZM30.7587 40.4941C30.8072 40.4499 30.8558 40.419 30.9043 40.4014C30.9573 40.3793 31.0213 40.3683 31.0963 40.3683H32.7383C32.8221 40.3683 32.8927 40.3793 32.9501 40.4014C33.0075 40.419 33.0627 40.4499 33.1156 40.4941L33.1885 40.4146C33.1443 40.3837 33.1156 40.3572 33.1024 40.3352C33.0936 40.3087 33.0847 40.2756 33.0759 40.2359C33.0627 40.1564 33.0406 40.0814 33.0097 40.0108C32.917 39.8033 32.7736 39.6422 32.5794 39.5274C32.3896 39.4127 32.1755 39.3553 31.9372 39.3553C31.6944 39.3553 31.4803 39.4127 31.295 39.5274C31.114 39.6422 30.9727 39.8033 30.8712 40.0108C30.8315 40.0946 30.8072 40.1697 30.7984 40.2359C30.794 40.2756 30.7852 40.3065 30.7719 40.3286C30.7587 40.3506 30.73 40.3793 30.6858 40.4146L30.7587 40.4941ZM35.9619 42.6524C35.6397 42.6524 35.355 42.573 35.1078 42.4141C34.8607 42.2552 34.6687 42.0323 34.5318 41.7454C34.3994 41.4585 34.3332 41.1297 34.3332 40.7589C34.3332 40.3881 34.3994 40.0593 34.5318 39.7724C34.6687 39.4811 34.8585 39.256 35.1012 39.0971C35.3484 38.9382 35.6353 38.8588 35.9619 38.8588C36.2312 38.8588 36.4518 38.9073 36.624 39.0044C36.8005 39.1015 36.9749 39.267 37.147 39.501L37.2397 39.4414C37.2088 39.4017 37.1867 39.3619 37.1735 39.3222C37.1647 39.2781 37.1603 39.2251 37.1603 39.1633V37.5346H37.723V42.5862H37.1603V42.3479C37.1603 42.2861 37.1647 42.2353 37.1735 42.1956C37.1867 42.1514 37.2088 42.1095 37.2397 42.0698L37.147 42.0102C36.9749 42.2441 36.8005 42.4097 36.624 42.5068C36.4518 42.6039 36.2312 42.6524 35.9619 42.6524ZM36.0149 42.1559C36.24 42.1559 36.4408 42.0963 36.6174 41.9771C36.7939 41.8579 36.9307 41.6924 37.0278 41.4806C37.1294 41.2643 37.1801 41.0237 37.1801 40.7589C37.1801 40.4897 37.1294 40.2491 37.0278 40.0372C36.9307 39.8254 36.7939 39.6599 36.6174 39.5407C36.4408 39.4171 36.24 39.3553 36.0149 39.3553C35.7898 39.3553 35.5912 39.4171 35.419 39.5407C35.2513 39.6599 35.1211 39.8254 35.0284 40.0372C34.9401 40.2491 34.896 40.4897 34.896 40.7589C34.896 41.0237 34.9401 41.2621 35.0284 41.4739C35.1211 41.6858 35.2513 41.8535 35.419 41.9771C35.5912 42.0963 35.7898 42.1559 36.0149 42.1559ZM41.5634 42.6524C41.1971 42.6524 40.9058 42.5597 40.6895 42.3743C40.4776 42.189 40.3717 41.9352 40.3717 41.613C40.3717 41.2952 40.4909 41.0436 40.7292 40.8582C40.9234 40.7037 41.2037 40.589 41.5701 40.5139L42.8743 40.2623C42.8787 39.9799 42.8037 39.7614 42.6492 39.6069C42.4815 39.4392 42.2564 39.3553 41.9739 39.3553C41.7488 39.3553 41.5524 39.4171 41.3847 39.5407C41.2214 39.6599 41.1176 39.821 41.0735 40.024H40.5107C40.5725 39.6577 40.7403 39.373 41.0139 39.1699C41.292 38.9625 41.6142 38.8588 41.9805 38.8588C42.1968 38.8588 42.3976 38.8919 42.583 38.9581C42.7684 39.0199 42.9251 39.1126 43.0531 39.2361C43.2208 39.395 43.3267 39.5782 43.3709 39.7857C43.415 39.9931 43.4371 40.2072 43.4371 40.4279V42.5862H42.8743V42.4141C42.8743 42.3037 42.8964 42.1779 42.9405 42.0367L42.8478 41.997C42.7287 42.1868 42.5896 42.3346 42.4307 42.4406C42.3204 42.5156 42.1946 42.5686 42.0534 42.5994C41.9165 42.6348 41.7532 42.6524 41.5634 42.6524ZM41.6296 42.1559C41.8415 42.1559 42.0357 42.1139 42.2123 42.0301C42.4285 41.9197 42.5874 41.7719 42.689 41.5865C42.764 41.4541 42.8125 41.3283 42.8346 41.2091C42.8611 41.0899 42.8765 41.0171 42.881 40.9906C42.8942 40.9244 42.9118 40.8759 42.9339 40.845C42.956 40.8141 42.9891 40.7964 43.0332 40.792L43.0134 40.6861L42.1593 40.8648L41.6892 40.9575C41.4156 41.0105 41.2147 41.0966 41.0867 41.2157C40.9852 41.3172 40.9345 41.4452 40.9345 41.5997C40.9345 41.7674 40.9963 41.9021 41.1198 42.0036C41.2478 42.1051 41.4178 42.1559 41.6296 42.1559ZM45.8151 42.6524C45.3516 42.6524 44.9742 42.5421 44.6829 42.3214C44.3916 42.1007 44.2151 41.7961 44.1533 41.4077H44.7425C44.7911 41.6417 44.9036 41.8248 45.0802 41.9572C45.2611 42.0897 45.5083 42.1559 45.8217 42.1559C46.0777 42.1559 46.2807 42.1073 46.4308 42.0102C46.5853 41.9131 46.6625 41.7741 46.6625 41.5931C46.6625 41.4519 46.6162 41.3393 46.5235 41.2554C46.4352 41.1672 46.3204 41.101 46.1792 41.0568C46.0424 41.0127 45.8592 40.9686 45.6297 40.9244C45.3428 40.867 45.1111 40.8097 44.9345 40.7523C44.7624 40.6905 44.6145 40.5934 44.4909 40.461C44.3673 40.3286 44.3055 40.1454 44.3055 39.9114C44.3055 39.5804 44.4291 39.3222 44.6763 39.1368C44.9279 38.9514 45.2479 38.8588 45.6363 38.8588C46.0335 38.8588 46.3646 38.9625 46.6294 39.1699C46.8942 39.3774 47.0575 39.6621 47.1193 40.024H46.5963C46.5433 39.7989 46.433 39.6312 46.2653 39.5208C46.0975 39.4105 45.8879 39.3553 45.6363 39.3553C45.3935 39.3553 45.2037 39.4017 45.0669 39.4943C44.9345 39.5826 44.8683 39.7062 44.8683 39.8651C44.8683 39.9887 44.9102 40.0858 44.9941 40.1564C45.078 40.227 45.1817 40.2822 45.3053 40.3219C45.4288 40.3572 45.6032 40.397 45.8283 40.4411C46.124 40.4985 46.3646 40.5603 46.55 40.6265C46.7353 40.6883 46.8942 40.792 47.0266 40.9377C47.1591 41.0789 47.2253 41.2775 47.2253 41.5335C47.2253 41.8778 47.1017 42.1514 46.8545 42.3545C46.6073 42.5531 46.2608 42.6524 45.8151 42.6524ZM49.5419 37.5346H50.1775L51.2501 41.1297C51.303 41.2974 51.3361 41.4188 51.3494 41.4938C51.367 41.5688 51.3759 41.6417 51.3759 41.7123H51.4818C51.4818 41.6417 51.4906 41.5666 51.5083 41.4872C51.5259 41.4077 51.5568 41.2886 51.601 41.1297L52.6735 37.5346H53.2561L54.3287 41.1297C54.3728 41.2886 54.4037 41.4077 54.4214 41.4872C54.439 41.5666 54.4479 41.6417 54.4479 41.7123H54.5538C54.5538 41.6417 54.5604 41.5688 54.5737 41.4938C54.5913 41.4188 54.6266 41.2974 54.6796 41.1297L55.7521 37.5346H56.3877L54.8915 42.5862H54.2029L53.084 38.925C53.0399 38.7749 53.0178 38.6226 53.0178 38.4681H52.9119C52.9119 38.6226 52.8898 38.7749 52.8457 38.925L51.7268 42.5862H51.0382L49.5419 37.5346ZM58.3035 42.6524C57.9593 42.6524 57.6503 42.5708 57.3766 42.4074C57.1074 42.2441 56.8977 42.019 56.7477 41.7321C56.5976 41.4452 56.5226 41.123 56.5226 40.7655C56.5226 40.4257 56.5932 40.1123 56.7344 39.8254C56.8757 39.5341 57.0787 39.3001 57.3435 39.1236C57.6128 38.947 57.9284 38.8588 58.2903 38.8588C58.6037 38.8588 58.895 38.9294 59.1642 39.0706C59.4335 39.2119 59.6497 39.4193 59.8131 39.693C59.9764 39.9622 60.058 40.2866 60.058 40.6662V40.8648H57.4428C57.412 40.8648 57.3502 40.8648 57.2575 40.8648C57.1692 40.8648 57.0875 40.8604 57.0125 40.8516L56.9926 40.9575C57.0324 40.9663 57.0588 40.9818 57.0721 41.0039C57.0897 41.0215 57.103 41.0546 57.1118 41.1032C57.1251 41.1473 57.1383 41.1892 57.1515 41.229C57.2442 41.5114 57.3921 41.7366 57.5951 41.9043C57.8026 42.072 58.0365 42.1559 58.2969 42.1559C58.5617 42.1559 58.7891 42.0852 58.9788 41.944C59.1686 41.8028 59.3055 41.624 59.3893 41.4077H59.9918C59.8726 41.7785 59.6696 42.0786 59.3827 42.3081C59.0958 42.5377 58.7361 42.6524 58.3035 42.6524ZM57.1251 40.4941C57.1736 40.4499 57.2222 40.419 57.2707 40.4014C57.3237 40.3793 57.3877 40.3683 57.4627 40.3683H59.1046C59.1885 40.3683 59.2591 40.3793 59.3165 40.4014C59.3739 40.419 59.4291 40.4499 59.482 40.4941L59.5548 40.4146C59.5107 40.3837 59.482 40.3572 59.4688 40.3352C59.46 40.3087 59.4511 40.2756 59.4423 40.2359C59.4291 40.1564 59.407 40.0814 59.3761 40.0108C59.2834 39.8033 59.14 39.6422 58.9457 39.5274C58.756 39.4127 58.5419 39.3553 58.3035 39.3553C58.0608 39.3553 57.8467 39.4127 57.6613 39.5274C57.4804 39.6422 57.3391 39.8033 57.2376 40.0108C57.1979 40.0946 57.1736 40.1697 57.1648 40.2359C57.1604 40.2756 57.1515 40.3065 57.1383 40.3286C57.1251 40.3506 57.0964 40.3793 57.0522 40.4146L57.1251 40.4941ZM62.6064 42.6524C62.3371 42.6524 62.1142 42.6039 61.9377 42.5068C61.7655 42.4097 61.5934 42.2441 61.4213 42.0102L61.3286 42.0698C61.3595 42.1095 61.3793 42.1514 61.3882 42.1956C61.4014 42.2353 61.408 42.2861 61.408 42.3479V42.5862H60.8453V37.5346H61.408V39.1633C61.408 39.2251 61.4014 39.2781 61.3882 39.3222C61.3793 39.3619 61.3595 39.4017 61.3286 39.4414L61.4213 39.501C61.5934 39.267 61.7655 39.1015 61.9377 39.0044C62.1142 38.9073 62.3371 38.8588 62.6064 38.8588C62.933 38.8588 63.2177 38.9382 63.4604 39.0971C63.7076 39.256 63.8974 39.4811 64.0298 39.7724C64.1666 40.0593 64.2351 40.3881 64.2351 40.7589C64.2351 41.1297 64.1666 41.4585 64.0298 41.7454C63.8974 42.0323 63.7076 42.2552 63.4604 42.4141C63.2133 42.573 62.9286 42.6524 62.6064 42.6524ZM62.5534 42.1559C62.7785 42.1559 62.9749 42.0963 63.1426 41.9771C63.3148 41.8535 63.445 41.6858 63.5333 41.4739C63.626 41.2621 63.6723 41.0237 63.6723 40.7589C63.6723 40.4897 63.626 40.2491 63.5333 40.0372C63.445 39.8254 63.3148 39.6599 63.1426 39.5407C62.9749 39.4171 62.7785 39.3553 62.5534 39.3553C62.3283 39.3553 62.1275 39.4171 61.9509 39.5407C61.7744 39.6599 61.6353 39.8254 61.5338 40.0372C61.4367 40.2491 61.3882 40.4897 61.3882 40.7589C61.3882 41.0237 61.4367 41.2643 61.5338 41.4806C61.6353 41.6924 61.7744 41.8579 61.9509 41.9771C62.1275 42.0963 62.3283 42.1559 62.5534 42.1559ZM65.1972 39.4215H64.5881V38.925H65.1972V38.5277C65.1972 38.2011 65.2767 37.9539 65.4356 37.7862C65.5945 37.6185 65.8306 37.5346 66.144 37.5346H66.6141V38.0312H66.2698C66.0932 38.0312 65.963 38.0775 65.8792 38.1702C65.7997 38.2629 65.76 38.4063 65.76 38.6006C65.76 38.6579 65.7556 38.7109 65.7467 38.7594C65.7423 38.8036 65.7247 38.8588 65.6938 38.925L65.76 38.9912C65.8262 38.9603 65.8792 38.9426 65.9189 38.9382C65.963 38.9294 66.0116 38.925 66.0645 38.925H66.6141V39.4215H65.76V42.5862H65.1972V39.4215ZM68.0772 42.5862C67.7815 42.5862 67.563 42.52 67.4218 42.3876C67.2805 42.2552 67.2099 42.0146 67.2099 41.6659V37.5346H67.7727V41.5799C67.7727 41.7079 67.7815 41.8072 67.7992 41.8778C67.8168 41.944 67.8565 41.997 67.9183 42.0367C67.9801 42.072 68.0772 42.0897 68.2096 42.0897H68.3884V42.5862H68.0772ZM70.5946 42.6524C70.2504 42.6524 69.9414 42.5708 69.6677 42.4074C69.3985 42.2441 69.1866 42.0168 69.0322 41.7255C68.8821 41.4342 68.8071 41.1054 68.8071 40.739C68.8071 40.3815 68.8821 40.0593 69.0322 39.7724C69.1866 39.4855 69.3985 39.2626 69.6677 39.1037C69.9414 38.9404 70.2504 38.8588 70.5946 38.8588C70.9389 38.8588 71.2479 38.9404 71.5215 39.1037C71.7952 39.2626 72.0093 39.4855 72.1637 39.7724C72.3182 40.0593 72.3955 40.3815 72.3955 40.739C72.3955 41.1054 72.3182 41.4342 72.1637 41.7255C72.0137 42.0124 71.8018 42.2397 71.5282 42.4074C71.2545 42.5708 70.9433 42.6524 70.5946 42.6524ZM70.5946 42.1559C70.8242 42.1559 71.0316 42.0941 71.217 41.9705C71.4068 41.8469 71.5546 41.6792 71.6606 41.4673C71.7709 41.251 71.8261 41.0083 71.8261 40.739C71.8261 40.483 71.7731 40.2491 71.6672 40.0372C71.5613 39.8254 71.4134 39.6599 71.2236 39.5407C71.0382 39.4171 70.8286 39.3553 70.5946 39.3553C70.3651 39.3553 70.1555 39.4149 69.9657 39.5341C69.7803 39.6532 69.6346 39.8188 69.5287 40.0306C69.4228 40.2425 69.3698 40.4786 69.3698 40.739C69.3698 41.0083 69.4228 41.251 69.5287 41.4673C69.6346 41.6836 69.7803 41.8535 69.9657 41.9771C70.1555 42.0963 70.3651 42.1559 70.5946 42.1559ZM72.8832 38.925H73.4857L74.1412 41.2753C74.1632 41.3592 74.1787 41.4408 74.1875 41.5203C74.1963 41.5953 74.203 41.6615 74.2074 41.7189C74.2118 41.7719 74.214 41.8116 74.214 41.8381H74.3001C74.3001 41.816 74.3023 41.7652 74.3067 41.6858C74.3111 41.6063 74.3199 41.5357 74.3332 41.4739C74.3464 41.4077 74.3641 41.3415 74.3861 41.2753L75.174 38.925H75.6838L76.4716 41.2753C76.5025 41.368 76.5224 41.4519 76.5312 41.5269C76.5401 41.5975 76.5489 41.7012 76.5577 41.8381H76.6438C76.6438 41.8116 76.646 41.7586 76.6504 41.6792C76.6548 41.5997 76.6614 41.5291 76.6703 41.4673C76.6835 41.4055 76.699 41.3415 76.7166 41.2753L77.3787 38.925H77.9812L76.8954 42.5862H76.3723L75.558 40.1034C75.5271 40.0108 75.5072 39.9313 75.4984 39.8651C75.4896 39.7989 75.4807 39.704 75.4719 39.5804H75.3925C75.3836 39.704 75.3748 39.7989 75.366 39.8651C75.3572 39.9313 75.3373 40.0108 75.3064 40.1034L74.4788 42.5862H73.9558L72.8832 38.925ZM7.94541 50.0367H8.58099C8.81051 50.0367 8.98044 49.9837 9.09079 49.8778C9.20555 49.7674 9.26293 49.5953 9.26293 49.3614V45.5346H9.87203V49.368C9.87203 49.6417 9.83451 49.8668 9.75948 50.0433C9.68444 50.2199 9.55203 50.3545 9.36224 50.4472C9.17686 50.5399 8.91644 50.5862 8.58099 50.5862H7.94541V50.0367ZM12.0821 50.6524C11.5657 50.6524 11.206 50.4604 11.0029 50.0764C10.9279 49.9308 10.8793 49.7829 10.8573 49.6328C10.8396 49.4783 10.8308 49.3106 10.8308 49.1297V46.925H11.3935V49.1297C11.3935 49.5181 11.4642 49.7917 11.6054 49.9506C11.729 50.0874 11.9166 50.1559 12.1682 50.1559C12.4462 50.1559 12.6691 50.0654 12.8369 49.8844C12.956 49.7608 13.0399 49.5909 13.0884 49.3746C13.1414 49.1583 13.1679 48.8626 13.1679 48.4874V46.925H13.7306V50.5862H13.1679V50.3479C13.1679 50.2861 13.1723 50.2353 13.1811 50.1956C13.1944 50.1514 13.2164 50.1095 13.2473 50.0698L13.1546 50.0102C12.9869 50.2397 12.8214 50.4052 12.6581 50.5068C12.4948 50.6039 12.3028 50.6524 12.0821 50.6524ZM14.6716 46.925H15.2344V47.1633C15.2344 47.2251 15.2278 47.2781 15.2145 47.3222C15.2057 47.3619 15.1858 47.4017 15.1549 47.4414L15.2476 47.501C15.4153 47.2714 15.5809 47.1081 15.7442 47.011C15.9075 46.9095 16.0995 46.8588 16.3202 46.8588C16.8366 46.8588 17.1963 47.0508 17.3993 47.4348C17.4744 47.5804 17.5207 47.7305 17.5384 47.885C17.5604 48.035 17.5715 48.2006 17.5715 48.3815V50.5862H17.0087V48.3815C17.0087 47.9931 16.9381 47.7194 16.7969 47.5606C16.6733 47.4237 16.4857 47.3553 16.2341 47.3553C15.956 47.3553 15.7331 47.4458 15.5654 47.6268C15.4462 47.7503 15.3602 47.9203 15.3072 48.1366C15.2587 48.3528 15.2344 48.6486 15.2344 49.0237V50.5862H14.6716V46.925ZM20.115 50.6524C19.7707 50.6524 19.4617 50.5708 19.1881 50.4074C18.9188 50.2441 18.7092 50.019 18.5591 49.7321C18.409 49.4452 18.334 49.123 18.334 48.7655C18.334 48.4257 18.4046 48.1123 18.5459 47.8254C18.6871 47.5341 18.8901 47.3001 19.155 47.1236C19.4242 46.947 19.7398 46.8588 20.1017 46.8588C20.4151 46.8588 20.7064 46.9294 20.9756 47.0706C21.2449 47.2119 21.4612 47.4193 21.6245 47.693C21.7878 47.9622 21.8694 48.2866 21.8694 48.6662V48.8648H19.2543C19.2234 48.8648 19.1616 48.8648 19.0689 48.8648C18.9806 48.8648 18.899 48.8604 18.8239 48.8516L18.8041 48.9575C18.8438 48.9663 18.8703 48.9818 18.8835 49.0039C18.9012 49.0215 18.9144 49.0546 18.9232 49.1032C18.9365 49.1473 18.9497 49.1892 18.963 49.229C19.0556 49.5114 19.2035 49.7366 19.4065 49.9043C19.614 50.072 19.8479 50.1559 20.1083 50.1559C20.3732 50.1559 20.6005 50.0852 20.7903 49.944C20.9801 49.8028 21.1169 49.624 21.2008 49.4077H21.8032C21.6841 49.7785 21.481 50.0786 21.1941 50.3081C20.9072 50.5377 20.5475 50.6524 20.115 50.6524ZM18.9365 48.4941C18.985 48.4499 19.0336 48.419 19.0821 48.4014C19.1351 48.3793 19.1991 48.3683 19.2741 48.3683H20.9161C20.9999 48.3683 21.0705 48.3793 21.1279 48.4014C21.1853 48.419 21.2405 48.4499 21.2934 48.4941L21.3663 48.4146C21.3221 48.3837 21.2934 48.3572 21.2802 48.3352C21.2714 48.3087 21.2625 48.2756 21.2537 48.2359C21.2405 48.1564 21.2184 48.0814 21.1875 48.0108C21.0948 47.8033 20.9514 47.6422 20.7572 47.5274C20.5674 47.4127 20.3533 47.3553 20.115 47.3553C19.8722 47.3553 19.6581 47.4127 19.4728 47.5274C19.2918 47.6422 19.1505 47.8033 19.049 48.0108C19.0093 48.0946 18.985 48.1697 18.9762 48.2359C18.9718 48.2756 18.963 48.3065 18.9497 48.3286C18.9365 48.3506 18.9078 48.3793 18.8636 48.4146L18.9365 48.4941ZM22.6898 47.0177C22.8928 46.9868 23.0495 46.9073 23.1599 46.7793C23.2702 46.6513 23.3254 46.4924 23.3254 46.3026C23.3254 46.2364 23.3188 46.1702 23.3055 46.104H23.2261C23.2216 46.1526 23.1974 46.1901 23.1532 46.2166C23.1135 46.2386 23.065 46.2497 23.0076 46.2497C22.9105 46.2497 22.8288 46.2166 22.7626 46.1503C22.6964 46.0797 22.6633 45.987 22.6633 45.8723C22.6633 45.7531 22.7008 45.656 22.7759 45.581C22.8553 45.5059 22.959 45.4684 23.087 45.4684C23.2592 45.4684 23.396 45.539 23.4975 45.6803C23.6034 45.8215 23.6564 46.0069 23.6564 46.2364C23.6564 46.5057 23.5748 46.744 23.4114 46.9514C23.2525 47.1589 23.012 47.2803 22.6898 47.3156V47.0177ZM25.7105 50.6524C25.2471 50.6524 24.8697 50.5421 24.5784 50.3214C24.2871 50.1007 24.1105 49.7961 24.0487 49.4077H24.638C24.6865 49.6417 24.7991 49.8248 24.9756 49.9572C25.1566 50.0897 25.4038 50.1559 25.7171 50.1559C25.9731 50.1559 26.1762 50.1073 26.3263 50.0102C26.4807 49.9131 26.558 49.7741 26.558 49.5931C26.558 49.4519 26.5116 49.3393 26.4189 49.2554C26.3307 49.1672 26.2159 49.101 26.0747 49.0568C25.9378 49.0127 25.7547 48.9686 25.5251 48.9244C25.2383 48.867 25.0065 48.8097 24.83 48.7523C24.6578 48.6905 24.51 48.5934 24.3864 48.461C24.2628 48.3286 24.201 48.1454 24.201 47.9114C24.201 47.5804 24.3246 47.3222 24.5718 47.1368C24.8234 46.9514 25.1434 46.8588 25.5318 46.8588C25.929 46.8588 26.26 46.9625 26.5249 47.1699C26.7897 47.3774 26.953 47.6621 27.0148 48.024H26.4918C26.4388 47.7989 26.3285 47.6312 26.1607 47.5208C25.993 47.4105 25.7834 47.3553 25.5318 47.3553C25.289 47.3553 25.0992 47.4017 24.9624 47.4943C24.83 47.5826 24.7638 47.7062 24.7638 47.8651C24.7638 47.9887 24.8057 48.0858 24.8896 48.1564C24.9734 48.227 25.0771 48.2822 25.2007 48.3219C25.3243 48.3572 25.4987 48.397 25.7238 48.4411C26.0195 48.4985 26.26 48.5603 26.4454 48.6265C26.6308 48.6883 26.7897 48.792 26.9221 48.9377C27.0545 49.0789 27.1207 49.2775 27.1207 49.5335C27.1207 49.8778 26.9971 50.1514 26.75 50.3545C26.5028 50.5531 26.1563 50.6524 25.7105 50.6524ZM30.9138 50.5862V46.3887H29.3712V45.5346H33.4032V46.3887H31.8672V50.5862H30.9138ZM34.7089 50.659C34.3381 50.659 34.0093 50.5774 33.7224 50.4141C33.4355 50.2508 33.2104 50.0212 33.0471 49.7255C32.8882 49.4298 32.8087 49.0899 32.8087 48.7059C32.8087 48.3352 32.8882 48.0041 33.0471 47.7128C33.2104 47.4215 33.4355 47.1964 33.7224 47.0375C34.0093 46.8742 34.3381 46.7926 34.7089 46.7926C35.0796 46.7926 35.4085 46.8742 35.6954 47.0375C35.9867 47.2008 36.2118 47.4281 36.3707 47.7194C36.534 48.0063 36.6156 48.3352 36.6156 48.7059C36.6156 49.0899 36.5362 49.4298 36.3773 49.7255C36.2184 50.0212 35.9933 50.2508 35.702 50.4141C35.4151 50.5774 35.084 50.659 34.7089 50.659ZM34.7089 49.891C35.0002 49.891 35.2363 49.7807 35.4173 49.56C35.5983 49.3393 35.6887 49.0546 35.6887 48.7059C35.6887 48.3705 35.5983 48.0968 35.4173 47.885C35.2363 47.6687 35.0002 47.5606 34.7089 47.5606C34.5191 47.5606 34.3491 47.6091 34.1991 47.7062C34.049 47.8033 33.932 47.9401 33.8482 48.1167C33.7643 48.2888 33.7224 48.4852 33.7224 48.7059C33.7224 49.059 33.8129 49.3459 33.9938 49.5666C34.1792 49.7829 34.4176 49.891 34.7089 49.891ZM39.2331 46.7992C39.5553 46.7992 39.84 46.8808 40.0871 47.0441C40.3343 47.2074 40.5263 47.437 40.6631 47.7327C40.8 48.024 40.8684 48.3572 40.8684 48.7324C40.8684 49.1076 40.8 49.443 40.6631 49.7388C40.5263 50.0301 40.3343 50.2574 40.0871 50.4207C39.84 50.584 39.5553 50.6657 39.2331 50.6657C38.9947 50.6657 38.7939 50.6237 38.6306 50.5399C38.4673 50.4516 38.315 50.3037 38.1738 50.0963L38.0811 50.1625C38.1164 50.211 38.1407 50.2574 38.1539 50.3015C38.1716 50.3457 38.1804 50.4008 38.1804 50.467V51.9236H37.2866V46.872H38.1804V46.9912C38.1804 47.0574 38.1716 47.1148 38.1539 47.1633C38.1407 47.2074 38.1164 47.2538 38.0811 47.3023L38.1738 47.3619C38.315 47.1545 38.4673 47.0088 38.6306 46.925C38.7939 46.8411 38.9947 46.7992 39.2331 46.7992ZM39.0278 47.5672C38.7454 47.5672 38.5136 47.6753 38.3327 47.8916C38.1561 48.1079 38.0678 48.3881 38.0678 48.7324C38.0678 49.0767 38.1561 49.357 38.3327 49.5732C38.5136 49.7895 38.7454 49.8977 39.0278 49.8977C39.3103 49.8977 39.5376 49.7895 39.7098 49.5732C39.8819 49.3526 39.968 49.0723 39.968 48.7324C39.968 48.3926 39.8819 48.1145 39.7098 47.8982C39.5376 47.6775 39.3103 47.5672 39.0278 47.5672ZM44.5042 47.1832C44.5042 46.9934 44.5263 46.819 44.5704 46.6601L44.4909 46.627C44.4071 46.7639 44.2989 46.8897 44.1665 47.0044C44.0165 47.1368 43.8465 47.2472 43.6567 47.3354C43.4714 47.4193 43.2948 47.4723 43.1271 47.4943V46.6138C43.4493 46.552 43.7318 46.424 43.9745 46.2298C44.2217 46.0312 44.4071 45.7994 44.5307 45.5346H45.4576V50.5862H44.5042V47.1832ZM48.0944 50.6789C46.8585 50.6789 46.2406 49.8006 46.2406 48.0439C46.2406 47.1479 46.3973 46.4902 46.7106 46.0709C47.0284 45.6516 47.4808 45.4419 48.0679 45.4419C49.3037 45.4419 49.9217 46.3203 49.9217 48.077C49.9217 49.8116 49.3126 50.6789 48.0944 50.6789ZM48.0745 49.8248C48.3614 49.8248 48.5821 49.6924 48.7366 49.4276C48.891 49.1628 48.9683 48.7081 48.9683 48.0637C48.9683 47.4193 48.8888 46.9647 48.7299 46.6999C48.571 46.435 48.3481 46.3026 48.0613 46.3026C47.7744 46.3026 47.5581 46.435 47.4124 46.6999C47.2668 46.9603 47.1939 47.4127 47.1939 48.0571C47.1939 48.7059 47.269 49.1628 47.419 49.4276C47.5691 49.6924 47.7876 49.8248 48.0745 49.8248ZM52.1694 45.5346H53.1691L54.0563 49.1032C54.0916 49.24 54.1159 49.3481 54.1291 49.4276C54.1424 49.5026 54.149 49.5931 54.149 49.699H54.2549C54.2549 49.5931 54.2615 49.5026 54.2748 49.4276C54.288 49.3481 54.3123 49.24 54.3476 49.1032L55.1487 45.5346H56.3603L57.1614 49.1032C57.1658 49.1252 57.1768 49.1782 57.1945 49.2621C57.2121 49.3415 57.2254 49.4166 57.2342 49.4872C57.243 49.5578 57.2475 49.6284 57.2475 49.699H57.3534C57.3534 49.5931 57.36 49.5004 57.3733 49.421C57.3909 49.3415 57.4174 49.2356 57.4527 49.1032L58.3399 45.5346H59.3396L58.0155 50.5862H56.6715L55.8571 46.9978C55.8218 46.8477 55.8041 46.6756 55.8041 46.4814H55.6982C55.6982 46.6623 55.6828 46.8345 55.6519 46.9978L54.8375 50.5862H53.4869L52.1694 45.5346ZM61.3079 50.659C60.9327 50.659 60.6016 50.5774 60.3148 50.4141C60.0279 50.2508 59.805 50.0257 59.6461 49.7388C59.4916 49.4474 59.4143 49.1186 59.4143 48.7523C59.4143 48.4124 59.4828 48.0946 59.6196 47.7989C59.7608 47.4988 59.9705 47.256 60.2485 47.0706C60.531 46.8852 60.8753 46.7926 61.2814 46.7926C61.6168 46.7926 61.9258 46.8632 62.2083 47.0044C62.4908 47.1412 62.7181 47.3553 62.8902 47.6466C63.0623 47.9335 63.1484 48.291 63.1484 48.7192V48.9112H60.7914C60.765 48.9112 60.6921 48.9112 60.573 48.9112C60.4538 48.9112 60.3589 48.9046 60.2883 48.8913L60.2618 48.9906C60.2971 48.9994 60.3236 49.0171 60.3412 49.0436C60.3633 49.0701 60.381 49.1076 60.3942 49.1561C60.4295 49.2488 60.4582 49.3128 60.4803 49.3481C60.5685 49.5203 60.6855 49.6549 60.8312 49.752C60.9812 49.8447 61.1512 49.891 61.341 49.891C61.544 49.891 61.7183 49.8403 61.864 49.7388C62.0096 49.6328 62.1134 49.4982 62.1752 49.3349H63.0888C62.9696 49.7277 62.76 50.0477 62.4599 50.2949C62.1597 50.5377 61.7757 50.659 61.3079 50.659ZM60.3677 48.3418C60.4339 48.3021 60.4935 48.2756 60.5465 48.2623C60.5994 48.2491 60.659 48.2425 60.7252 48.2425H61.8772C61.9479 48.2425 62.0096 48.2491 62.0626 48.2623C62.12 48.2756 62.184 48.3021 62.2546 48.3418L62.3076 48.2491C62.2767 48.2314 62.2546 48.216 62.2414 48.2028C62.2281 48.1851 62.2171 48.1674 62.2083 48.1498C62.2039 48.1321 62.2016 48.1211 62.2016 48.1167C62.184 48.0417 62.1487 47.9688 62.0957 47.8982C62.0119 47.7702 61.9015 47.6731 61.7647 47.6069C61.6279 47.5363 61.4756 47.501 61.3079 47.501C61.1401 47.501 60.9879 47.5341 60.851 47.6003C60.7186 47.6665 60.6105 47.7658 60.5266 47.8982C60.4692 47.9688 60.4317 48.0417 60.4141 48.1167C60.4141 48.1211 60.4096 48.1343 60.4008 48.1564C60.392 48.1741 60.381 48.1917 60.3677 48.2094C60.3545 48.2226 60.3346 48.2359 60.3081 48.2491L60.3677 48.3418ZM65.7546 50.659C65.5163 50.659 65.3155 50.6171 65.1521 50.5332C64.9888 50.4494 64.8366 50.3037 64.6953 50.0963L64.6026 50.1559C64.6379 50.2044 64.6622 50.253 64.6755 50.3015C64.6931 50.3457 64.7019 50.4008 64.7019 50.467V50.5862H63.8081V45.5346H64.7019V46.9912C64.7019 47.0574 64.6931 47.1126 64.6755 47.1567C64.6622 47.2008 64.6379 47.2472 64.6026 47.2957L64.6953 47.3619C64.8366 47.1545 64.9888 47.0088 65.1521 46.925C65.3155 46.8367 65.5163 46.7926 65.7546 46.7926C66.0768 46.7926 66.3615 46.8742 66.6087 47.0375C66.8559 47.2008 67.0479 47.4303 67.1847 47.7261C67.3215 48.0174 67.3899 48.3506 67.3899 48.7258C67.3899 49.101 67.3215 49.4364 67.1847 49.7321C67.0479 50.0234 66.8559 50.2508 66.6087 50.4141C66.3615 50.5774 66.0768 50.659 65.7546 50.659ZM65.5494 49.891C65.8319 49.891 66.0592 49.7829 66.2313 49.5666C66.4035 49.3459 66.4895 49.0657 66.4895 48.7258C66.4895 48.3859 66.4035 48.1079 66.2313 47.8916C66.0592 47.6709 65.8319 47.5606 65.5494 47.5606C65.2669 47.5606 65.0352 47.6687 64.8542 47.885C64.6777 48.1012 64.5894 48.3815 64.5894 48.7258C64.5894 49.0701 64.6777 49.3503 64.8542 49.5666C65.0352 49.7829 65.2669 49.891 65.5494 49.891ZM69.6647 50.659C69.2056 50.659 68.8084 50.5487 68.4729 50.328C68.1375 50.1073 67.9411 49.7763 67.8837 49.3349H68.7643C68.8216 49.5335 68.9276 49.688 69.082 49.7983C69.2365 49.9043 69.4285 49.9572 69.658 49.9572C69.8523 49.9572 70.0089 49.9197 70.1281 49.8447C70.2517 49.7697 70.3135 49.6637 70.3135 49.5269C70.3135 49.3768 70.2407 49.2687 70.095 49.2025C69.9538 49.1363 69.7331 49.0745 69.4329 49.0171C69.146 48.9597 68.9077 48.8979 68.7179 48.8317C68.5281 48.7655 68.367 48.6596 68.2346 48.5139C68.1022 48.3639 68.036 48.1608 68.036 47.9048C68.036 47.5385 68.1706 47.2626 68.4398 47.0772C68.7135 46.8874 69.0578 46.7926 69.4727 46.7926C69.9096 46.7926 70.2716 46.9029 70.5585 47.1236C70.8498 47.3443 71.0285 47.6554 71.0947 48.0571H70.2539C70.2054 47.8629 70.1105 47.7217 69.9692 47.6334C69.828 47.5407 69.6603 47.4943 69.466 47.4943C69.2895 47.4943 69.1483 47.5297 69.0423 47.6003C68.9408 47.6665 68.89 47.757 68.89 47.8717C68.89 48.0086 68.9585 48.1057 69.0953 48.163C69.2321 48.2204 69.4484 48.2778 69.7441 48.3352C70.0487 48.3926 70.2958 48.4543 70.4856 48.5206C70.6798 48.5823 70.8454 48.6883 70.9822 48.8383C71.1234 48.9884 71.194 49.1959 71.194 49.4607C71.194 49.827 71.0572 50.1183 70.7836 50.3346C70.5143 50.5509 70.1414 50.659 69.6647 50.659ZM71.8705 50.5862V46.872H72.7643V50.5862H71.8705ZM72.3207 46.4615C72.1662 46.4615 72.036 46.4152 71.9301 46.3225C71.8241 46.2298 71.7712 46.1062 71.7712 45.9517C71.7712 45.8061 71.8241 45.6847 71.9301 45.5876C72.036 45.4905 72.1662 45.4419 72.3207 45.4419C72.4708 45.4419 72.5988 45.4905 72.7047 45.5876C72.815 45.6847 72.8702 45.8061 72.8702 45.9517C72.8702 46.1018 72.8172 46.2254 72.7113 46.3225C72.6054 46.4152 72.4752 46.4615 72.3207 46.4615ZM74.7426 50.5862C74.1644 50.5862 73.8753 50.3148 73.8753 49.7719V47.587H73.3258V46.872H73.8753V45.5346H74.7691V46.872H75.4842V47.587H74.7691V49.5004C74.7691 49.6152 74.7868 49.7012 74.8221 49.7586C74.8618 49.816 74.9457 49.8447 75.0737 49.8447H75.4775V50.5862H74.7426ZM77.7949 50.659C77.4197 50.659 77.0887 50.5774 76.8018 50.4141C76.5149 50.2508 76.292 50.0257 76.1331 49.7388C75.9786 49.4474 75.9014 49.1186 75.9014 48.7523C75.9014 48.4124 75.9698 48.0946 76.1066 47.7989C76.2479 47.4988 76.4575 47.256 76.7356 47.0706C77.0181 46.8852 77.3624 46.7926 77.7684 46.7926C78.1039 46.7926 78.4129 46.8632 78.6953 47.0044C78.9778 47.1412 79.2051 47.3553 79.3773 47.6466C79.5494 47.9335 79.6355 48.291 79.6355 48.7192V48.9112H77.2785C77.252 48.9112 77.1792 48.9112 77.06 48.9112C76.9409 48.9112 76.846 48.9046 76.7753 48.8913L76.7489 48.9906C76.7842 48.9994 76.8106 49.0171 76.8283 49.0436C76.8504 49.0701 76.868 49.1076 76.8813 49.1561C76.9166 49.2488 76.9453 49.3128 76.9673 49.3481C77.0556 49.5203 77.1726 49.6549 77.3182 49.752C77.4683 49.8447 77.6382 49.891 77.828 49.891C78.0311 49.891 78.2054 49.8403 78.3511 49.7388C78.4967 49.6328 78.6004 49.4982 78.6622 49.3349H79.5759C79.4567 49.7277 79.2471 50.0477 78.9469 50.2949C78.6468 50.5377 78.2628 50.659 77.7949 50.659ZM76.8548 48.3418C76.921 48.3021 76.9806 48.2756 77.0335 48.2623C77.0865 48.2491 77.1461 48.2425 77.2123 48.2425H78.3643C78.4349 48.2425 78.4967 48.2491 78.5497 48.2623C78.6071 48.2756 78.6711 48.3021 78.7417 48.3418L78.7946 48.2491C78.7637 48.2314 78.7417 48.216 78.7284 48.2028C78.7152 48.1851 78.7042 48.1674 78.6953 48.1498C78.6909 48.1321 78.6887 48.1211 78.6887 48.1167C78.6711 48.0417 78.6357 47.9688 78.5828 47.8982C78.4989 47.7702 78.3886 47.6731 78.2517 47.6069C78.1149 47.5363 77.9626 47.501 77.7949 47.501C77.6272 47.501 77.4749 47.5341 77.3381 47.6003C77.2057 47.6665 77.0975 47.7658 77.0137 47.8982C76.9563 47.9688 76.9188 48.0417 76.9011 48.1167C76.9011 48.1211 76.8967 48.1343 76.8879 48.1564C76.8791 48.1741 76.868 48.1917 76.8548 48.2094C76.8415 48.2226 76.8217 48.2359 76.7952 48.2491L76.8548 48.3418Z" fill="black"/>
</svg>
