<?xml version="1.0" encoding="UTF-8"?>
<svg width="475px" height="140px" viewBox="0 0 475 140" version="1.1" xmlns="http://www.w3.org/2000/svg" xmlns:xlink="http://www.w3.org/1999/xlink">
    <!-- Generator: Sketch 61.2 (89653) - https://sketch.com -->
    <title>Personal / LOGO-Aymeric - White</title>
    <desc>Created with Sketch.</desc>
    <g id="Personal-/-LOGO-Aymeric---White" stroke="none" stroke-width="1" fill="none" fill-rule="evenodd">
        <path d="M38.6,104 L45.6,85.7 L72.6,85.7 L79.6,104 L93.7,104 L65.4,34 L52.8,34 L24.5,104 L38.6,104 Z M68.1,73.9 L50.1,73.9 L56.5,57.1 C56.5,57.1 57.8,53.7 59.1,49.5 C60.4,53.7 61.7,57.1 61.7,57.1 L68.1,73.9 Z M121.2,104 L121.2,76.6 L144.3,34 L129.8,34 L116.8,58.9 C116.8,58.9 115.5,61.6 114.6,64 C113.7,61.6 112.4,58.9 112.4,58.9 L99.4,34 L84.9,34 L108,76.6 L108,104 L121.2,104 Z M162.3,104 L162.3,61.2 C162.9,63 165.7,71.9 165.7,71.9 L179.4,104 L192,104 L205.7,71.9 C205.7,71.9 208.5,63 209.1,61.2 L209.1,104 L221.9,104 L221.9,34 L208,34 L185.7,89.6 L163.4,34 L149.5,34 L149.5,104 L162.3,104 Z M283.3,104 L283.3,92.2 L247.9,92.2 L247.9,73.7 L280.2,73.7 L280.2,61.9 L247.9,61.9 L247.9,45.8 L283,45.8 L283,34 L234.7,34 L234.7,104 L283.3,104 Z M306.9,104 L306.9,75.6 L318.1,75.6 L334.3,104 L349.4,104 L332.5,74.4 C342,71 348.5,64.6 348.5,53.8 C348.5,41.7 339,34 323.6,34 L293.7,34 L293.7,104 L306.9,104 Z M323.6,64 L306.9,64 L306.9,45.6 L323.6,45.6 C331.7,45.6 335.3,49.2 335.3,54.8 C335.3,60.4 331.7,64 323.6,64 Z M371.7,104 L371.7,34 L358.5,34 L358.5,104 L371.7,104 Z M417.3,105.4 C432.4,105.4 440.4,99.5 448.9,86.6 L438.6,79.2 C433.7,88.4 426.5,93.2 417.4,93.2 C404.9,93.2 394.9,83.4 394.9,69 C394.9,54.1 405.1,44.8 417.4,44.8 C427.2,44.8 433.6,49.7 437.8,58.6 L448.5,50.9 C443.8,40.3 432.5,32.6 417.8,32.6 C397.3,32.6 381.5,47.2 381.5,69 C381.5,90.8 396.7,105.4 417.3,105.4 Z" id="AYMERIC" fill="#FFFFFF" fill-rule="nonzero"></path>
    </g>
</svg>