<svg width="24" height="24" viewBox="0 0 24 24" fill="none" xmlns="http://www.w3.org/2000/svg">
<path d="M12 1C5.92708 1 1 5.92708 1 12C1 18.0786 5.92708 23 12 23C18.0729 23 23 18.0786 23 12C23 5.92708 18.0729 1 12 1ZM18.9839 6.07031C20.2214 7.52552 21.0063 9.37031 21.1438 11.3927C19.1615 11.2896 16.7896 11.2896 14.8875 11.4672C14.6469 10.8599 14.4005 10.2641 14.1313 9.69115C16.3255 8.7401 18.0156 7.49115 18.9839 6.07031ZM12 2.83333C14.2229 2.83333 16.2625 3.62396 17.8495 4.94167C16.8526 6.20208 15.2885 7.29635 13.3406 8.12708C12.275 6.15625 11.049 4.46042 9.74271 3.12552C10.4703 2.94219 11.2208 2.83333 12 2.83333V2.83333ZM7.85208 3.83594C9.17552 5.15365 10.4187 6.83229 11.5073 8.7974C9.43906 9.4276 7.06719 9.78854 4.5349 9.78854C4.05365 9.78854 3.58385 9.77135 3.11979 9.74271C3.77865 7.15885 5.52604 5.01615 7.85208 3.83594V3.83594ZM2.85052 11.5646C3.37188 11.5875 3.89896 11.599 4.43177 11.5932C7.31927 11.5589 10.0063 11.1063 12.3151 10.3672C12.5328 10.8198 12.7391 11.2839 12.9339 11.7594C12.6187 11.8339 12.338 11.9141 12.1146 12.0057C8.95781 13.3292 6.47135 15.4661 5.125 18.05C3.70417 16.4344 2.83333 14.3203 2.83333 12C2.83333 11.851 2.83906 11.7078 2.85052 11.5646ZM12 21.1667C9.88021 21.1667 7.93229 20.4448 6.37969 19.2359C7.6 16.8182 9.77708 14.8188 12.5214 13.5755C12.7792 13.4552 13.1229 13.3578 13.5182 13.2719C13.8448 14.1771 14.137 15.1167 14.3948 16.0906C14.7901 17.6089 15.0708 19.1099 15.2427 20.5651C14.2344 20.949 13.1458 21.1667 12 21.1667ZM16.9557 19.7057C16.7839 18.2333 16.5031 16.7208 16.1021 15.1854C15.9073 14.4406 15.6839 13.7188 15.4432 13.0141C17.2422 12.8651 19.3964 12.888 21.1094 13.0141C20.8 15.8271 19.2188 18.2448 16.9557 19.7057V19.7057Z" fill="white"/>
</svg>
