<svg xmlns="http://www.w3.org/2000/svg" viewBox="0 0 56 80.5"><defs><style>.cls-1{fill:#fff;}</style></defs><title>logo-transparent</title><g id="Layer_2" data-name="Layer 2"><g id="Layer_1-2" data-name="Layer 1"><path class="cls-1" d="M55.79,70l-.17-.58a7.5,7.5,0,0,0-3.93-4.2,29.68,29.68,0,0,1-.41-5.58,22.14,22.14,0,0,0-6.81-16.15,25.39,25.39,0,0,0,3.9-4.67,25.22,25.22,0,0,0-3.3-31.43A24.83,24.83,0,0,0,27.35,0H7.11L6.79,0A7.44,7.44,0,0,0,0,7.4V73.1a7.46,7.46,0,0,0,14.91,0V50.17H26.14l.24.08.42.07a17.78,17.78,0,0,1,6,2.63c2.62,2,3.69,3.88,3.69,6.65,0,6.31.76,10.59,2.45,13.84a10.5,10.5,0,0,0,9,6h.2a12.67,12.67,0,0,0,1.51-.1h.63l.86-.33A7.67,7.67,0,0,0,55.79,70Zm-40.88-55H27.35a10.23,10.23,0,0,1,.34,20.46H14.91ZM49.66,75.19l-.17.06h-.23a8.6,8.6,0,0,1-1.15.09h-.2a6.56,6.56,0,0,1-5.38-3.74c-1.39-2.67-2-6.38-2-12,0-4.06-1.7-7.21-5.36-9.93a21.54,21.54,0,0,0-7.75-3.35l-.15,0a2.72,2.72,0,0,1-.38-.15h-16v27A3.36,3.36,0,0,1,8.8,76.17a3.4,3.4,0,0,1-1.39.29,4.45,4.45,0,0,1-3-1.32A1.14,1.14,0,0,1,4,74.35V7.42A3.4,3.4,0,0,1,7.43,4h.06a3.39,3.39,0,0,1,3.37,3.38v32h16.9A14.39,14.39,0,0,0,41.48,27.17a3.24,3.24,0,0,1,3.2-2.82h.08a3.39,3.39,0,0,1,3.35,3.91A21,21,0,0,1,37.83,43.38,18.77,18.77,0,0,1,47.24,59.6a26,26,0,0,0,.86,7.86,3.49,3.49,0,0,0,.52,1.06,3.57,3.57,0,0,1,3.2,2.24l0,.11A3.67,3.67,0,0,1,49.66,75.19Z"/></g></g></svg>