<svg width="60" height="23" viewBox="0 0 60 23" fill="none" xmlns="http://www.w3.org/2000/svg">
<path d="M26.6434 8.37086C26.6434 3.28971 23.0931 0 17.9143 0H0V22.8H5.86286V16.7091H15.3086L18.9891 22.8H25.8943L21.6926 16.0251C24.7543 14.82 26.6434 12.084 26.6434 8.37086ZM5.86286 4.91829H16.2857C18.0446 4.91829 20.7806 4.91829 20.7806 8.37086C20.7806 11.7909 18.0446 11.7909 16.2857 11.7909H5.86286V4.91829Z" fill="black"/>
<path d="M59.5716 0H50.6796L34.4265 11.8234V0H28.5636V22.8H34.4265V18.4354L41.4293 13.3217L51.4613 22.8H59.5716L45.7613 10.1297L59.5716 0Z" fill="black"/>
</svg>
