<svg xmlns="http://www.w3.org/2000/svg" xmlns:xlink="http://www.w3.org/1999/xlink" viewBox="0 0 186 267.39"><defs><style>.cls-1{fill:#fff;}.cls-2{fill:#242528;stroke-miterlimit:10;stroke-width:0.58px;stroke:url(#linear-gradient);}</style><linearGradient id="linear-gradient" x1="13.14" y1="133.67" x2="172.85" y2="133.67" gradientUnits="userSpaceOnUse"><stop offset="0" stop-color="#e24b44"/><stop offset="1" stop-color="#fff"/></linearGradient></defs><title>logo</title><g id="Layer_2" data-name="Layer 2"><g id="Layer_1-2" data-name="Layer 1"><path class="cls-1" d="M185.3,232.37l-.57-1.93a24.82,24.82,0,0,0-13.06-13.94A100.81,100.81,0,0,1,170.33,198c0-25.58-11.79-43-22.62-53.64a83.69,83.69,0,0,0,2-119.9A82.49,82.49,0,0,0,90.85,0H23.62L22.54.06A24.74,24.74,0,0,0,0,24.59V242.8a24.76,24.76,0,0,0,49.51,0V166.65H86.82l.79.26,1.4.22a59.26,59.26,0,0,1,19.9,8.75c8.69,6.49,12.24,12.89,12.24,22.07,0,21,2.53,35.18,8.15,46,6.87,13.67,19.93,19.79,29.83,19.79h.67a38.1,38.1,0,0,0,5-.34h2.1l2.86-1.1A25.49,25.49,0,0,0,185.3,232.37ZM124.83,83.49a34.16,34.16,0,0,1-32.86,34H49.51v-68H90.85A34,34,0,0,1,124.83,83.49Z"/><path class="cls-2" d="M172.22,235.4l-.11-.36a11.8,11.8,0,0,0-10.63-7.44,12.48,12.48,0,0,1-1.73-3.53c-1.3-3.9-2.85-11.6-2.85-26.12,0-30.86-20.56-47.38-31.23-53.86a69.85,69.85,0,0,0,34.14-50.23,11.29,11.29,0,0,0-11.14-13h-.26a10.74,10.74,0,0,0-10.63,9.36c-3.26,22.62-22.89,40.09-45.59,40.65H36.08V24.62a11.25,11.25,0,0,0-11.2-11.23h-.19A11.25,11.25,0,0,0,13.43,24.65V246.94a3.65,3.65,0,0,0,1.13,2.63,14.79,14.79,0,0,0,10,4.39,11.65,11.65,0,0,0,4.62-1,11.17,11.17,0,0,0,6.85-10.21V153.22h53.2a11.14,11.14,0,0,0,1.25.51l.52.12c4.18.64,16,4.22,25.72,11.14,12.15,9,17.82,19.49,17.82,33,0,18.72,2.07,31,6.68,39.89,4.09,8.16,12.08,12.44,17.86,12.44h.67a28.37,28.37,0,0,0,3.82-.3l.77,0,.54-.21A12.17,12.17,0,0,0,172.22,235.4Z"/></g></g></svg>